<mxfile host="app.diagrams.net" modified="2023-11-09T09:40:10.374Z" agent="Mozilla/5.0 (Windows NT 10.0; Win64; x64) AppleWebKit/537.36 (KHTML, like Gecko) Chrome/119.0.0.0 Safari/537.36" etag="1d2mmo4XXgTTOuRFaH0S" version="22.0.8" type="device">
  <diagram id="C5RBs43oDa-KdzZeNtuy" name="Page-1">
    <mxGraphModel dx="2100" dy="1068" grid="1" gridSize="10" guides="1" tooltips="1" connect="1" arrows="1" fold="1" page="1" pageScale="1" pageWidth="1654" pageHeight="2336" math="0" shadow="0">
      <root>
        <mxCell id="WIyWlLk6GJQsqaUBKTNV-0" />
        <mxCell id="WIyWlLk6GJQsqaUBKTNV-1" parent="WIyWlLk6GJQsqaUBKTNV-0" />
        <mxCell id="jLUfQ_ZdSW11AOpu9WSQ-0" value="Karten" style="swimlane;fontStyle=1;align=center;verticalAlign=top;childLayout=stackLayout;horizontal=1;startSize=26;horizontalStack=0;resizeParent=1;resizeParentMax=0;resizeLast=0;collapsible=1;marginBottom=0;whiteSpace=wrap;html=1;" parent="WIyWlLk6GJQsqaUBKTNV-1" vertex="1">
          <mxGeometry x="1160" y="1674" width="160" height="104" as="geometry" />
        </mxCell>
        <mxCell id="jLUfQ_ZdSW11AOpu9WSQ-1" value="+ iD: type&lt;br&gt;+anzahl: int" style="text;strokeColor=none;fillColor=none;align=left;verticalAlign=top;spacingLeft=4;spacingRight=4;overflow=hidden;rotatable=0;points=[[0,0.5],[1,0.5]];portConstraint=eastwest;whiteSpace=wrap;html=1;" parent="jLUfQ_ZdSW11AOpu9WSQ-0" vertex="1">
          <mxGeometry y="26" width="160" height="44" as="geometry" />
        </mxCell>
        <mxCell id="jLUfQ_ZdSW11AOpu9WSQ-2" value="" style="line;strokeWidth=1;fillColor=none;align=left;verticalAlign=middle;spacingTop=-1;spacingLeft=3;spacingRight=3;rotatable=0;labelPosition=right;points=[];portConstraint=eastwest;strokeColor=inherit;" parent="jLUfQ_ZdSW11AOpu9WSQ-0" vertex="1">
          <mxGeometry y="70" width="160" height="8" as="geometry" />
        </mxCell>
        <mxCell id="jLUfQ_ZdSW11AOpu9WSQ-3" value="+ method(type): type" style="text;strokeColor=none;fillColor=none;align=left;verticalAlign=top;spacingLeft=4;spacingRight=4;overflow=hidden;rotatable=0;points=[[0,0.5],[1,0.5]];portConstraint=eastwest;whiteSpace=wrap;html=1;" parent="jLUfQ_ZdSW11AOpu9WSQ-0" vertex="1">
          <mxGeometry y="78" width="160" height="26" as="geometry" />
        </mxCell>
        <mxCell id="jLUfQ_ZdSW11AOpu9WSQ-4" value="Entwicklungskarten" style="swimlane;fontStyle=1;align=center;verticalAlign=top;childLayout=stackLayout;horizontal=1;startSize=26;horizontalStack=0;resizeParent=1;resizeParentMax=0;resizeLast=0;collapsible=1;marginBottom=0;whiteSpace=wrap;html=1;" parent="WIyWlLk6GJQsqaUBKTNV-1" vertex="1">
          <mxGeometry x="990" y="1814" width="160" height="86" as="geometry" />
        </mxCell>
        <mxCell id="jLUfQ_ZdSW11AOpu9WSQ-5" value="+ field: type" style="text;strokeColor=none;fillColor=none;align=left;verticalAlign=top;spacingLeft=4;spacingRight=4;overflow=hidden;rotatable=0;points=[[0,0.5],[1,0.5]];portConstraint=eastwest;whiteSpace=wrap;html=1;" parent="jLUfQ_ZdSW11AOpu9WSQ-4" vertex="1">
          <mxGeometry y="26" width="160" height="26" as="geometry" />
        </mxCell>
        <mxCell id="jLUfQ_ZdSW11AOpu9WSQ-6" value="" style="line;strokeWidth=1;fillColor=none;align=left;verticalAlign=middle;spacingTop=-1;spacingLeft=3;spacingRight=3;rotatable=0;labelPosition=right;points=[];portConstraint=eastwest;strokeColor=inherit;" parent="jLUfQ_ZdSW11AOpu9WSQ-4" vertex="1">
          <mxGeometry y="52" width="160" height="8" as="geometry" />
        </mxCell>
        <mxCell id="jLUfQ_ZdSW11AOpu9WSQ-7" value="+ method(type): type" style="text;strokeColor=none;fillColor=none;align=left;verticalAlign=top;spacingLeft=4;spacingRight=4;overflow=hidden;rotatable=0;points=[[0,0.5],[1,0.5]];portConstraint=eastwest;whiteSpace=wrap;html=1;" parent="jLUfQ_ZdSW11AOpu9WSQ-4" vertex="1">
          <mxGeometry y="60" width="160" height="26" as="geometry" />
        </mxCell>
        <mxCell id="jLUfQ_ZdSW11AOpu9WSQ-8" value="Rohstoffkarten" style="swimlane;fontStyle=1;align=center;verticalAlign=top;childLayout=stackLayout;horizontal=1;startSize=26;horizontalStack=0;resizeParent=1;resizeParentMax=0;resizeLast=0;collapsible=1;marginBottom=0;whiteSpace=wrap;html=1;" parent="WIyWlLk6GJQsqaUBKTNV-1" vertex="1">
          <mxGeometry x="1340" y="1814" width="160" height="86" as="geometry" />
        </mxCell>
        <mxCell id="jLUfQ_ZdSW11AOpu9WSQ-9" value="+ field: type" style="text;strokeColor=none;fillColor=none;align=left;verticalAlign=top;spacingLeft=4;spacingRight=4;overflow=hidden;rotatable=0;points=[[0,0.5],[1,0.5]];portConstraint=eastwest;whiteSpace=wrap;html=1;" parent="jLUfQ_ZdSW11AOpu9WSQ-8" vertex="1">
          <mxGeometry y="26" width="160" height="26" as="geometry" />
        </mxCell>
        <mxCell id="jLUfQ_ZdSW11AOpu9WSQ-10" value="" style="line;strokeWidth=1;fillColor=none;align=left;verticalAlign=middle;spacingTop=-1;spacingLeft=3;spacingRight=3;rotatable=0;labelPosition=right;points=[];portConstraint=eastwest;strokeColor=inherit;" parent="jLUfQ_ZdSW11AOpu9WSQ-8" vertex="1">
          <mxGeometry y="52" width="160" height="8" as="geometry" />
        </mxCell>
        <mxCell id="jLUfQ_ZdSW11AOpu9WSQ-11" value="+ method(type): type" style="text;strokeColor=none;fillColor=none;align=left;verticalAlign=top;spacingLeft=4;spacingRight=4;overflow=hidden;rotatable=0;points=[[0,0.5],[1,0.5]];portConstraint=eastwest;whiteSpace=wrap;html=1;" parent="jLUfQ_ZdSW11AOpu9WSQ-8" vertex="1">
          <mxGeometry y="60" width="160" height="26" as="geometry" />
        </mxCell>
        <mxCell id="jLUfQ_ZdSW11AOpu9WSQ-12" style="edgeStyle=orthogonalEdgeStyle;rounded=0;orthogonalLoop=1;jettySize=auto;html=1;exitX=0.25;exitY=0;exitDx=0;exitDy=0;entryX=0.593;entryY=1.049;entryDx=0;entryDy=0;entryPerimeter=0;" parent="WIyWlLk6GJQsqaUBKTNV-1" source="jLUfQ_ZdSW11AOpu9WSQ-8" target="jLUfQ_ZdSW11AOpu9WSQ-3" edge="1">
          <mxGeometry relative="1" as="geometry">
            <Array as="points">
              <mxPoint x="1440" y="1794" />
              <mxPoint x="1255" y="1794" />
            </Array>
          </mxGeometry>
        </mxCell>
        <mxCell id="jLUfQ_ZdSW11AOpu9WSQ-13" style="edgeStyle=orthogonalEdgeStyle;rounded=0;orthogonalLoop=1;jettySize=auto;html=1;exitX=0.5;exitY=0;exitDx=0;exitDy=0;entryX=0.307;entryY=1.137;entryDx=0;entryDy=0;entryPerimeter=0;" parent="WIyWlLk6GJQsqaUBKTNV-1" source="jLUfQ_ZdSW11AOpu9WSQ-4" target="jLUfQ_ZdSW11AOpu9WSQ-3" edge="1">
          <mxGeometry relative="1" as="geometry">
            <Array as="points">
              <mxPoint x="1030" y="1794" />
              <mxPoint x="1209" y="1794" />
            </Array>
          </mxGeometry>
        </mxCell>
        <mxCell id="ejsJbF7bYoNr-m1MCgWR-42" style="edgeStyle=orthogonalEdgeStyle;rounded=0;orthogonalLoop=1;jettySize=auto;html=1;exitX=0;exitY=0.25;exitDx=0;exitDy=0;entryX=1;entryY=0;entryDx=0;entryDy=0;endArrow=none;endFill=0;" parent="WIyWlLk6GJQsqaUBKTNV-1" source="jLUfQ_ZdSW11AOpu9WSQ-18" target="ejsJbF7bYoNr-m1MCgWR-6" edge="1">
          <mxGeometry relative="1" as="geometry">
            <mxPoint x="630" y="1220" as="targetPoint" />
          </mxGeometry>
        </mxCell>
        <mxCell id="jLUfQ_ZdSW11AOpu9WSQ-18" value="&lt;p style=&quot;margin:0px;margin-top:4px;text-align:center;&quot;&gt;&lt;i&gt;&amp;lt;&amp;lt;Spiel&amp;gt;&amp;gt;&lt;/i&gt;&lt;br&gt;&lt;b&gt;Sieder von Catan&lt;/b&gt;&lt;/p&gt;&lt;hr size=&quot;1&quot;&gt;&lt;p style=&quot;margin:0px;margin-left:4px;&quot;&gt;+ spielrunde: int&lt;br&gt;+ anleitung: strinf&lt;/p&gt;&lt;hr size=&quot;1&quot;&gt;&lt;p style=&quot;margin:0px;margin-left:4px;&quot;&gt;&lt;br&gt;&lt;/p&gt;" style="verticalAlign=top;align=left;overflow=fill;fontSize=12;fontFamily=Helvetica;html=1;whiteSpace=wrap;fillColor=#f8cecc;strokeColor=#b85450;" parent="WIyWlLk6GJQsqaUBKTNV-1" vertex="1">
          <mxGeometry x="1150" y="1390" width="190" height="110" as="geometry" />
        </mxCell>
        <mxCell id="jLUfQ_ZdSW11AOpu9WSQ-26" value="" style="endArrow=none;html=1;edgeStyle=orthogonalEdgeStyle;rounded=0;entryX=0.5;entryY=1;entryDx=0;entryDy=0;" parent="WIyWlLk6GJQsqaUBKTNV-1" target="jLUfQ_ZdSW11AOpu9WSQ-18" edge="1">
          <mxGeometry relative="1" as="geometry">
            <mxPoint x="1220" y="1674" as="sourcePoint" />
            <mxPoint x="1380" y="1674" as="targetPoint" />
          </mxGeometry>
        </mxCell>
        <mxCell id="jLUfQ_ZdSW11AOpu9WSQ-54" style="edgeStyle=orthogonalEdgeStyle;rounded=0;orthogonalLoop=1;jettySize=auto;html=1;exitX=0;exitY=0.5;exitDx=0;exitDy=0;endArrow=none;endFill=0;" parent="WIyWlLk6GJQsqaUBKTNV-1" source="jLUfQ_ZdSW11AOpu9WSQ-38" edge="1">
          <mxGeometry relative="1" as="geometry">
            <mxPoint x="1360" y="1965.3333333333333" as="targetPoint" />
          </mxGeometry>
        </mxCell>
        <mxCell id="jLUfQ_ZdSW11AOpu9WSQ-38" value="&lt;p style=&quot;margin:0px;margin-top:4px;text-align:center;&quot;&gt;&lt;i&gt;&amp;lt;&amp;lt;Rohstoffkarte&amp;gt;&amp;gt;&lt;/i&gt;&lt;br&gt;&lt;b&gt;Erz&lt;/b&gt;&lt;/p&gt;&lt;hr size=&quot;1&quot;&gt;&lt;p style=&quot;margin:0px;margin-left:4px;&quot;&gt;&lt;/p&gt;&lt;p style=&quot;margin:0px;margin-left:4px;&quot;&gt;&lt;br&gt;&lt;/p&gt;" style="verticalAlign=top;align=left;overflow=fill;fontSize=12;fontFamily=Helvetica;html=1;whiteSpace=wrap;" parent="WIyWlLk6GJQsqaUBKTNV-1" vertex="1">
          <mxGeometry x="1450" y="1940" width="110" height="50" as="geometry" />
        </mxCell>
        <mxCell id="jLUfQ_ZdSW11AOpu9WSQ-57" style="edgeStyle=orthogonalEdgeStyle;rounded=0;orthogonalLoop=1;jettySize=auto;html=1;exitX=0;exitY=0.5;exitDx=0;exitDy=0;endArrow=none;endFill=0;" parent="WIyWlLk6GJQsqaUBKTNV-1" source="jLUfQ_ZdSW11AOpu9WSQ-39" edge="1">
          <mxGeometry relative="1" as="geometry">
            <mxPoint x="1360" y="2175.333333333333" as="targetPoint" />
          </mxGeometry>
        </mxCell>
        <mxCell id="jLUfQ_ZdSW11AOpu9WSQ-39" value="&lt;p style=&quot;margin:0px;margin-top:4px;text-align:center;&quot;&gt;&lt;i&gt;&amp;lt;&amp;lt;Rohstoffkarte&amp;gt;&amp;gt;&lt;/i&gt;&lt;br&gt;&lt;b&gt;Lehm&lt;/b&gt;&lt;/p&gt;&lt;hr size=&quot;1&quot;&gt;&lt;p style=&quot;margin:0px;margin-left:4px;&quot;&gt;&lt;/p&gt;&lt;p style=&quot;margin:0px;margin-left:4px;&quot;&gt;&lt;br&gt;&lt;/p&gt;" style="verticalAlign=top;align=left;overflow=fill;fontSize=12;fontFamily=Helvetica;html=1;whiteSpace=wrap;" parent="WIyWlLk6GJQsqaUBKTNV-1" vertex="1">
          <mxGeometry x="1450" y="2150" width="110" height="50" as="geometry" />
        </mxCell>
        <mxCell id="jLUfQ_ZdSW11AOpu9WSQ-56" style="edgeStyle=orthogonalEdgeStyle;rounded=0;orthogonalLoop=1;jettySize=auto;html=1;exitX=0;exitY=0.5;exitDx=0;exitDy=0;endArrow=none;endFill=0;" parent="WIyWlLk6GJQsqaUBKTNV-1" source="jLUfQ_ZdSW11AOpu9WSQ-40" edge="1">
          <mxGeometry relative="1" as="geometry">
            <mxPoint x="1360" y="2103.333333333333" as="targetPoint" />
          </mxGeometry>
        </mxCell>
        <mxCell id="jLUfQ_ZdSW11AOpu9WSQ-40" value="&lt;p style=&quot;margin:0px;margin-top:4px;text-align:center;&quot;&gt;&lt;i&gt;&amp;lt;&amp;lt;Rohstoffkarte&amp;gt;&amp;gt;&lt;/i&gt;&lt;br&gt;&lt;b&gt;Wolle&lt;/b&gt;&lt;/p&gt;&lt;hr size=&quot;1&quot;&gt;&lt;p style=&quot;margin:0px;margin-left:4px;&quot;&gt;&lt;/p&gt;&lt;p style=&quot;margin:0px;margin-left:4px;&quot;&gt;&lt;br&gt;&lt;/p&gt;" style="verticalAlign=top;align=left;overflow=fill;fontSize=12;fontFamily=Helvetica;html=1;whiteSpace=wrap;" parent="WIyWlLk6GJQsqaUBKTNV-1" vertex="1">
          <mxGeometry x="1450" y="2078" width="110" height="50" as="geometry" />
        </mxCell>
        <mxCell id="jLUfQ_ZdSW11AOpu9WSQ-55" style="edgeStyle=orthogonalEdgeStyle;rounded=0;orthogonalLoop=1;jettySize=auto;html=1;exitX=0;exitY=0.5;exitDx=0;exitDy=0;endArrow=none;endFill=0;" parent="WIyWlLk6GJQsqaUBKTNV-1" source="jLUfQ_ZdSW11AOpu9WSQ-41" edge="1">
          <mxGeometry relative="1" as="geometry">
            <mxPoint x="1360" y="2035.333333333333" as="targetPoint" />
          </mxGeometry>
        </mxCell>
        <mxCell id="jLUfQ_ZdSW11AOpu9WSQ-41" value="&lt;p style=&quot;margin:0px;margin-top:4px;text-align:center;&quot;&gt;&lt;i&gt;&amp;lt;&amp;lt;Rohstoffkarte&amp;gt;&amp;gt;&lt;/i&gt;&lt;br&gt;&lt;b&gt;Holz&lt;/b&gt;&lt;/p&gt;&lt;hr size=&quot;1&quot;&gt;&lt;p style=&quot;margin:0px;margin-left:4px;&quot;&gt;&lt;/p&gt;&lt;p style=&quot;margin:0px;margin-left:4px;&quot;&gt;&lt;br&gt;&lt;/p&gt;" style="verticalAlign=top;align=left;overflow=fill;fontSize=12;fontFamily=Helvetica;html=1;whiteSpace=wrap;" parent="WIyWlLk6GJQsqaUBKTNV-1" vertex="1">
          <mxGeometry x="1450" y="2010" width="110" height="50" as="geometry" />
        </mxCell>
        <mxCell id="jLUfQ_ZdSW11AOpu9WSQ-42" value="&lt;p style=&quot;margin:0px;margin-top:4px;text-align:center;&quot;&gt;&lt;i&gt;&amp;lt;&amp;lt;Rohstoffkarte&amp;gt;&amp;gt;&lt;/i&gt;&lt;br&gt;&lt;/p&gt;&lt;p style=&quot;margin:0px;margin-top:4px;text-align:center;&quot;&gt;&lt;i&gt;&lt;b&gt;Getreide&lt;/b&gt;&lt;/i&gt;&lt;/p&gt;&lt;p style=&quot;margin:0px;margin-left:4px;&quot;&gt;&lt;/p&gt;&lt;p style=&quot;margin:0px;margin-left:4px;&quot;&gt;&lt;br&gt;&lt;/p&gt;" style="verticalAlign=top;align=left;overflow=fill;fontSize=12;fontFamily=Helvetica;html=1;whiteSpace=wrap;" parent="WIyWlLk6GJQsqaUBKTNV-1" vertex="1">
          <mxGeometry x="1450" y="2220" width="110" height="50" as="geometry" />
        </mxCell>
        <mxCell id="jLUfQ_ZdSW11AOpu9WSQ-53" style="edgeStyle=orthogonalEdgeStyle;rounded=0;orthogonalLoop=1;jettySize=auto;html=1;exitX=0;exitY=0.5;exitDx=0;exitDy=0;entryX=0.125;entryY=1.075;entryDx=0;entryDy=0;entryPerimeter=0;" parent="WIyWlLk6GJQsqaUBKTNV-1" source="jLUfQ_ZdSW11AOpu9WSQ-42" target="jLUfQ_ZdSW11AOpu9WSQ-11" edge="1">
          <mxGeometry relative="1" as="geometry">
            <Array as="points">
              <mxPoint x="1360" y="2245" />
            </Array>
          </mxGeometry>
        </mxCell>
        <mxCell id="jLUfQ_ZdSW11AOpu9WSQ-58" style="edgeStyle=orthogonalEdgeStyle;rounded=0;orthogonalLoop=1;jettySize=auto;html=1;exitX=0;exitY=0.5;exitDx=0;exitDy=0;endArrow=none;endFill=0;" parent="WIyWlLk6GJQsqaUBKTNV-1" source="jLUfQ_ZdSW11AOpu9WSQ-59" edge="1">
          <mxGeometry relative="1" as="geometry">
            <mxPoint x="1000" y="1945.3333333333333" as="targetPoint" />
          </mxGeometry>
        </mxCell>
        <mxCell id="jLUfQ_ZdSW11AOpu9WSQ-59" value="&lt;p style=&quot;margin:0px;margin-top:4px;text-align:center;&quot;&gt;&lt;i&gt;&amp;lt;&amp;lt;Entwicklungskarte&amp;gt;&amp;gt;&lt;/i&gt;&lt;br&gt;&lt;b&gt;Fortschritt&lt;/b&gt;&lt;/p&gt;&lt;hr size=&quot;1&quot;&gt;&lt;p style=&quot;margin:0px;margin-left:4px;&quot;&gt;&lt;/p&gt;&lt;p style=&quot;margin:0px;margin-left:4px;&quot;&gt;&lt;br&gt;&lt;/p&gt;" style="verticalAlign=top;align=left;overflow=fill;fontSize=12;fontFamily=Helvetica;html=1;whiteSpace=wrap;" parent="WIyWlLk6GJQsqaUBKTNV-1" vertex="1">
          <mxGeometry x="1090" y="1920" width="110" height="50" as="geometry" />
        </mxCell>
        <mxCell id="jLUfQ_ZdSW11AOpu9WSQ-63" value="&lt;p style=&quot;margin:0px;margin-top:4px;text-align:center;&quot;&gt;&lt;i&gt;&amp;lt;&amp;lt;Rohstoffkarte&amp;gt;&amp;gt;&lt;/i&gt;&lt;br&gt;&lt;b&gt;Ritterkarte&lt;/b&gt;&lt;/p&gt;" style="verticalAlign=top;align=left;overflow=fill;fontSize=12;fontFamily=Helvetica;html=1;whiteSpace=wrap;" parent="WIyWlLk6GJQsqaUBKTNV-1" vertex="1">
          <mxGeometry x="1090" y="2058" width="110" height="50" as="geometry" />
        </mxCell>
        <mxCell id="jLUfQ_ZdSW11AOpu9WSQ-64" style="edgeStyle=orthogonalEdgeStyle;rounded=0;orthogonalLoop=1;jettySize=auto;html=1;exitX=0;exitY=0.5;exitDx=0;exitDy=0;endArrow=none;endFill=0;" parent="WIyWlLk6GJQsqaUBKTNV-1" source="jLUfQ_ZdSW11AOpu9WSQ-65" edge="1">
          <mxGeometry relative="1" as="geometry">
            <mxPoint x="1000" y="2015.333333333333" as="targetPoint" />
          </mxGeometry>
        </mxCell>
        <mxCell id="jLUfQ_ZdSW11AOpu9WSQ-65" value="&lt;p style=&quot;margin:0px;margin-top:4px;text-align:center;&quot;&gt;&lt;i&gt;&amp;lt;&amp;lt;Rohstoffkarte&amp;gt;&amp;gt;&lt;/i&gt;&lt;/p&gt;&lt;p style=&quot;margin:0px;margin-top:4px;text-align:center;&quot;&gt;&lt;i&gt;&lt;b&gt;Siegpunktkarte&lt;/b&gt;&lt;/i&gt;&lt;/p&gt;" style="verticalAlign=top;align=left;overflow=fill;fontSize=12;fontFamily=Helvetica;html=1;whiteSpace=wrap;" parent="WIyWlLk6GJQsqaUBKTNV-1" vertex="1">
          <mxGeometry x="1090" y="1990" width="110" height="50" as="geometry" />
        </mxCell>
        <mxCell id="jLUfQ_ZdSW11AOpu9WSQ-67" style="edgeStyle=orthogonalEdgeStyle;rounded=0;orthogonalLoop=1;jettySize=auto;html=1;exitX=0;exitY=0.5;exitDx=0;exitDy=0;" parent="WIyWlLk6GJQsqaUBKTNV-1" source="jLUfQ_ZdSW11AOpu9WSQ-63" edge="1">
          <mxGeometry relative="1" as="geometry">
            <mxPoint x="1000" y="1901" as="targetPoint" />
            <Array as="points">
              <mxPoint x="1000" y="2083" />
              <mxPoint x="1000" y="1901" />
            </Array>
          </mxGeometry>
        </mxCell>
        <mxCell id="jLUfQ_ZdSW11AOpu9WSQ-68" value="&lt;p style=&quot;margin:0px;margin-top:4px;text-align:center;&quot;&gt;&lt;i&gt;&amp;lt;&amp;lt;Spielfigur&amp;gt;&amp;gt;&lt;/i&gt;&lt;br&gt;&lt;b&gt;Spielfigur&lt;/b&gt;&lt;/p&gt;&lt;hr size=&quot;1&quot;&gt;&lt;p style=&quot;margin:0px;margin-left:4px;&quot;&gt;+ farbe: string&lt;br&gt;+ Kosten: string&lt;/p&gt;&lt;p style=&quot;margin:0px;margin-left:4px;&quot;&gt;+ posititon:&amp;nbsp;&lt;/p&gt;&lt;p style=&quot;margin:0px;margin-left:4px;&quot;&gt;+anzahl: int&lt;/p&gt;" style="verticalAlign=top;align=left;overflow=fill;fontSize=12;fontFamily=Helvetica;html=1;whiteSpace=wrap;" parent="WIyWlLk6GJQsqaUBKTNV-1" vertex="1">
          <mxGeometry x="50" y="1060" width="190" height="120" as="geometry" />
        </mxCell>
        <mxCell id="jLUfQ_ZdSW11AOpu9WSQ-69" value="" style="endArrow=none;html=1;edgeStyle=orthogonalEdgeStyle;rounded=0;exitX=1.004;exitY=0.604;exitDx=0;exitDy=0;exitPerimeter=0;" parent="WIyWlLk6GJQsqaUBKTNV-1" source="jLUfQ_ZdSW11AOpu9WSQ-68" edge="1">
          <mxGeometry relative="1" as="geometry">
            <mxPoint x="900" y="1480" as="sourcePoint" />
            <mxPoint x="1150" y="1400" as="targetPoint" />
            <Array as="points">
              <mxPoint x="241" y="1070" />
              <mxPoint x="1150" y="1070" />
            </Array>
          </mxGeometry>
        </mxCell>
        <mxCell id="jLUfQ_ZdSW11AOpu9WSQ-93" value="97" style="text;html=1;align=center;verticalAlign=middle;resizable=0;points=[];autosize=1;strokeColor=none;fillColor=none;" parent="WIyWlLk6GJQsqaUBKTNV-1" vertex="1">
          <mxGeometry x="240" y="1088" width="40" height="30" as="geometry" />
        </mxCell>
        <mxCell id="jLUfQ_ZdSW11AOpu9WSQ-97" value="Spielbestandteil" style="swimlane;fontStyle=1;align=center;verticalAlign=top;childLayout=stackLayout;horizontal=1;startSize=26;horizontalStack=0;resizeParent=1;resizeParentMax=0;resizeLast=0;collapsible=1;marginBottom=0;whiteSpace=wrap;html=1;" parent="WIyWlLk6GJQsqaUBKTNV-1" vertex="1">
          <mxGeometry x="770" y="1650" width="160" height="78" as="geometry" />
        </mxCell>
        <mxCell id="jLUfQ_ZdSW11AOpu9WSQ-98" value="+titel string&lt;br&gt;+siegpunkte: int" style="text;strokeColor=none;fillColor=none;align=left;verticalAlign=top;spacingLeft=4;spacingRight=4;overflow=hidden;rotatable=0;points=[[0,0.5],[1,0.5]];portConstraint=eastwest;whiteSpace=wrap;html=1;" parent="jLUfQ_ZdSW11AOpu9WSQ-97" vertex="1">
          <mxGeometry y="26" width="160" height="44" as="geometry" />
        </mxCell>
        <mxCell id="jLUfQ_ZdSW11AOpu9WSQ-99" value="" style="line;strokeWidth=1;fillColor=none;align=left;verticalAlign=middle;spacingTop=-1;spacingLeft=3;spacingRight=3;rotatable=0;labelPosition=right;points=[];portConstraint=eastwest;strokeColor=inherit;" parent="jLUfQ_ZdSW11AOpu9WSQ-97" vertex="1">
          <mxGeometry y="70" width="160" height="8" as="geometry" />
        </mxCell>
        <mxCell id="jLUfQ_ZdSW11AOpu9WSQ-102" style="edgeStyle=orthogonalEdgeStyle;rounded=0;orthogonalLoop=1;jettySize=auto;html=1;exitX=0.5;exitY=0;exitDx=0;exitDy=0;endArrow=none;endFill=0;" parent="WIyWlLk6GJQsqaUBKTNV-1" source="jLUfQ_ZdSW11AOpu9WSQ-97" edge="1">
          <mxGeometry relative="1" as="geometry">
            <mxPoint x="1160" y="1505" as="targetPoint" />
            <Array as="points">
              <mxPoint x="850" y="1575" />
              <mxPoint x="1160" y="1575" />
            </Array>
          </mxGeometry>
        </mxCell>
        <mxCell id="jLUfQ_ZdSW11AOpu9WSQ-103" value="2" style="edgeLabel;html=1;align=center;verticalAlign=middle;resizable=0;points=[];" parent="jLUfQ_ZdSW11AOpu9WSQ-102" vertex="1" connectable="0">
          <mxGeometry x="-0.9279" y="-9" relative="1" as="geometry">
            <mxPoint as="offset" />
          </mxGeometry>
        </mxCell>
        <mxCell id="jLUfQ_ZdSW11AOpu9WSQ-118" style="edgeStyle=orthogonalEdgeStyle;rounded=0;orthogonalLoop=1;jettySize=auto;html=1;exitX=0.5;exitY=0;exitDx=0;exitDy=0;" parent="WIyWlLk6GJQsqaUBKTNV-1" source="jLUfQ_ZdSW11AOpu9WSQ-104" edge="1">
          <mxGeometry relative="1" as="geometry">
            <mxPoint x="840" y="1730" as="targetPoint" />
          </mxGeometry>
        </mxCell>
        <mxCell id="jLUfQ_ZdSW11AOpu9WSQ-104" value="Rittermacht" style="swimlane;fontStyle=0;childLayout=stackLayout;horizontal=1;startSize=26;fillColor=none;horizontalStack=0;resizeParent=1;resizeParentMax=0;resizeLast=0;collapsible=1;marginBottom=0;whiteSpace=wrap;html=1;" parent="WIyWlLk6GJQsqaUBKTNV-1" vertex="1">
          <mxGeometry x="580" y="1871" width="140" height="104" as="geometry" />
        </mxCell>
        <mxCell id="jLUfQ_ZdSW11AOpu9WSQ-105" value="+ field: type" style="text;strokeColor=none;fillColor=none;align=left;verticalAlign=top;spacingLeft=4;spacingRight=4;overflow=hidden;rotatable=0;points=[[0,0.5],[1,0.5]];portConstraint=eastwest;whiteSpace=wrap;html=1;" parent="jLUfQ_ZdSW11AOpu9WSQ-104" vertex="1">
          <mxGeometry y="26" width="140" height="26" as="geometry" />
        </mxCell>
        <mxCell id="jLUfQ_ZdSW11AOpu9WSQ-106" value="+ field: type" style="text;strokeColor=none;fillColor=none;align=left;verticalAlign=top;spacingLeft=4;spacingRight=4;overflow=hidden;rotatable=0;points=[[0,0.5],[1,0.5]];portConstraint=eastwest;whiteSpace=wrap;html=1;" parent="jLUfQ_ZdSW11AOpu9WSQ-104" vertex="1">
          <mxGeometry y="52" width="140" height="26" as="geometry" />
        </mxCell>
        <mxCell id="jLUfQ_ZdSW11AOpu9WSQ-107" value="+ field: type" style="text;strokeColor=none;fillColor=none;align=left;verticalAlign=top;spacingLeft=4;spacingRight=4;overflow=hidden;rotatable=0;points=[[0,0.5],[1,0.5]];portConstraint=eastwest;whiteSpace=wrap;html=1;" parent="jLUfQ_ZdSW11AOpu9WSQ-104" vertex="1">
          <mxGeometry y="78" width="140" height="26" as="geometry" />
        </mxCell>
        <mxCell id="jLUfQ_ZdSW11AOpu9WSQ-117" style="edgeStyle=orthogonalEdgeStyle;rounded=0;orthogonalLoop=1;jettySize=auto;html=1;exitX=0.25;exitY=0;exitDx=0;exitDy=0;endArrow=none;endFill=0;" parent="WIyWlLk6GJQsqaUBKTNV-1" source="jLUfQ_ZdSW11AOpu9WSQ-109" edge="1">
          <mxGeometry relative="1" as="geometry">
            <mxPoint x="840" y="1800" as="targetPoint" />
            <Array as="points">
              <mxPoint x="840" y="1866" />
            </Array>
          </mxGeometry>
        </mxCell>
        <mxCell id="jLUfQ_ZdSW11AOpu9WSQ-109" value="Handelsstraße" style="swimlane;fontStyle=0;childLayout=stackLayout;horizontal=1;startSize=26;fillColor=none;horizontalStack=0;resizeParent=1;resizeParentMax=0;resizeLast=0;collapsible=1;marginBottom=0;whiteSpace=wrap;html=1;" parent="WIyWlLk6GJQsqaUBKTNV-1" vertex="1">
          <mxGeometry x="800" y="1866" width="140" height="104" as="geometry" />
        </mxCell>
        <mxCell id="jLUfQ_ZdSW11AOpu9WSQ-110" value="+ field: type" style="text;strokeColor=none;fillColor=none;align=left;verticalAlign=top;spacingLeft=4;spacingRight=4;overflow=hidden;rotatable=0;points=[[0,0.5],[1,0.5]];portConstraint=eastwest;whiteSpace=wrap;html=1;" parent="jLUfQ_ZdSW11AOpu9WSQ-109" vertex="1">
          <mxGeometry y="26" width="140" height="26" as="geometry" />
        </mxCell>
        <mxCell id="jLUfQ_ZdSW11AOpu9WSQ-111" value="+ field: type" style="text;strokeColor=none;fillColor=none;align=left;verticalAlign=top;spacingLeft=4;spacingRight=4;overflow=hidden;rotatable=0;points=[[0,0.5],[1,0.5]];portConstraint=eastwest;whiteSpace=wrap;html=1;" parent="jLUfQ_ZdSW11AOpu9WSQ-109" vertex="1">
          <mxGeometry y="52" width="140" height="26" as="geometry" />
        </mxCell>
        <mxCell id="jLUfQ_ZdSW11AOpu9WSQ-112" value="+ field: type" style="text;strokeColor=none;fillColor=none;align=left;verticalAlign=top;spacingLeft=4;spacingRight=4;overflow=hidden;rotatable=0;points=[[0,0.5],[1,0.5]];portConstraint=eastwest;whiteSpace=wrap;html=1;" parent="jLUfQ_ZdSW11AOpu9WSQ-109" vertex="1">
          <mxGeometry y="78" width="140" height="26" as="geometry" />
        </mxCell>
        <mxCell id="ejsJbF7bYoNr-m1MCgWR-11" style="edgeStyle=orthogonalEdgeStyle;rounded=0;orthogonalLoop=1;jettySize=auto;html=1;exitX=0;exitY=0.5;exitDx=0;exitDy=0;endArrow=none;endFill=0;" parent="WIyWlLk6GJQsqaUBKTNV-1" source="ejsJbF7bYoNr-m1MCgWR-4" edge="1">
          <mxGeometry relative="1" as="geometry">
            <mxPoint x="60" y="1265.8888888888887" as="targetPoint" />
          </mxGeometry>
        </mxCell>
        <mxCell id="ejsJbF7bYoNr-m1MCgWR-4" value="&lt;p style=&quot;margin:0px;margin-top:4px;text-align:center;&quot;&gt;&lt;i&gt;&amp;lt;&amp;lt;Spielfigur&amp;gt;&amp;gt;&lt;/i&gt;&lt;br&gt;&lt;b&gt;Strasse&lt;/b&gt;&lt;/p&gt;&lt;p style=&quot;margin:0px;margin-top:4px;text-align:center;&quot;&gt;{Kosten = Holz, Lehm}&lt;/p&gt;&lt;hr size=&quot;1&quot;&gt;&lt;p style=&quot;margin:0px;margin-left:4px;&quot;&gt;&lt;br&gt;&lt;/p&gt;&lt;hr size=&quot;1&quot;&gt;&lt;p style=&quot;margin:0px;margin-left:4px;&quot;&gt;&lt;br&gt;&lt;/p&gt;" style="verticalAlign=top;align=left;overflow=fill;fontSize=12;fontFamily=Helvetica;html=1;whiteSpace=wrap;" parent="WIyWlLk6GJQsqaUBKTNV-1" vertex="1">
          <mxGeometry x="141" y="1290" width="190" height="72" as="geometry" />
        </mxCell>
        <mxCell id="ejsJbF7bYoNr-m1MCgWR-10" style="edgeStyle=orthogonalEdgeStyle;rounded=0;orthogonalLoop=1;jettySize=auto;html=1;exitX=0;exitY=0.5;exitDx=0;exitDy=0;endArrow=none;endFill=0;" parent="WIyWlLk6GJQsqaUBKTNV-1" source="ejsJbF7bYoNr-m1MCgWR-5" edge="1">
          <mxGeometry relative="1" as="geometry">
            <mxPoint x="60" y="1343.6666666666665" as="targetPoint" />
          </mxGeometry>
        </mxCell>
        <mxCell id="ejsJbF7bYoNr-m1MCgWR-25" style="edgeStyle=orthogonalEdgeStyle;rounded=0;orthogonalLoop=1;jettySize=auto;html=1;exitX=1;exitY=0.5;exitDx=0;exitDy=0;endArrow=none;endFill=0;" parent="WIyWlLk6GJQsqaUBKTNV-1" source="ejsJbF7bYoNr-m1MCgWR-5" edge="1">
          <mxGeometry relative="1" as="geometry">
            <mxPoint x="400" y="1344.2068965517242" as="targetPoint" />
          </mxGeometry>
        </mxCell>
        <mxCell id="ejsJbF7bYoNr-m1MCgWR-5" value="&lt;p style=&quot;margin:0px;margin-top:4px;text-align:center;&quot;&gt;&lt;i&gt;&amp;lt;&amp;lt;Spielfigur&amp;gt;&amp;gt;&lt;/i&gt;&lt;br&gt;&lt;b&gt;Siedlung&lt;/b&gt;&lt;/p&gt;&lt;p style=&quot;margin:0px;margin-top:4px;text-align:center;&quot;&gt;{Kosten = Getreide, Wolle, Holz, Lehm}&lt;/p&gt;&lt;hr size=&quot;1&quot;&gt;&lt;p style=&quot;margin:0px;margin-left:4px;&quot;&gt;&lt;br&gt;&lt;/p&gt;&lt;hr size=&quot;1&quot;&gt;&lt;p style=&quot;margin:0px;margin-left:4px;&quot;&gt;&lt;br&gt;&lt;/p&gt;" style="verticalAlign=top;align=left;overflow=fill;fontSize=12;fontFamily=Helvetica;html=1;whiteSpace=wrap;" parent="WIyWlLk6GJQsqaUBKTNV-1" vertex="1">
          <mxGeometry x="141" y="1380" width="190" height="72" as="geometry" />
        </mxCell>
        <mxCell id="ejsJbF7bYoNr-m1MCgWR-9" style="edgeStyle=orthogonalEdgeStyle;rounded=0;orthogonalLoop=1;jettySize=auto;html=1;exitX=0;exitY=0.5;exitDx=0;exitDy=0;endArrow=none;endFill=0;" parent="WIyWlLk6GJQsqaUBKTNV-1" source="ejsJbF7bYoNr-m1MCgWR-6" edge="1">
          <mxGeometry relative="1" as="geometry">
            <mxPoint x="60" y="1425.8888888888887" as="targetPoint" />
          </mxGeometry>
        </mxCell>
        <mxCell id="ejsJbF7bYoNr-m1MCgWR-26" style="edgeStyle=orthogonalEdgeStyle;rounded=0;orthogonalLoop=1;jettySize=auto;html=1;exitX=1;exitY=0.5;exitDx=0;exitDy=0;endArrow=none;endFill=0;" parent="WIyWlLk6GJQsqaUBKTNV-1" source="ejsJbF7bYoNr-m1MCgWR-6" edge="1">
          <mxGeometry relative="1" as="geometry">
            <mxPoint x="400" y="1426.2758620689656" as="targetPoint" />
            <Array as="points">
              <mxPoint x="331" y="1270" />
              <mxPoint x="400" y="1270" />
            </Array>
          </mxGeometry>
        </mxCell>
        <mxCell id="ejsJbF7bYoNr-m1MCgWR-6" value="&lt;p style=&quot;margin:0px;margin-top:4px;text-align:center;&quot;&gt;&lt;i&gt;&amp;lt;&amp;lt;Spielfigur&amp;gt;&amp;gt;&lt;/i&gt;&lt;br&gt;&lt;b&gt;Räuber&lt;/b&gt;&lt;/p&gt;&lt;p style=&quot;margin:0px;margin-top:4px;text-align:center;&quot;&gt;{Kosten = &quot;&quot;}&lt;/p&gt;&lt;hr size=&quot;1&quot;&gt;&lt;p style=&quot;margin:0px;margin-left:4px;&quot;&gt;&lt;br&gt;&lt;/p&gt;&lt;hr size=&quot;1&quot;&gt;&lt;p style=&quot;margin:0px;margin-left:4px;&quot;&gt;&lt;br&gt;&lt;/p&gt;" style="verticalAlign=top;align=left;overflow=fill;fontSize=12;fontFamily=Helvetica;html=1;whiteSpace=wrap;" parent="WIyWlLk6GJQsqaUBKTNV-1" vertex="1">
          <mxGeometry x="141" y="1200" width="190" height="72" as="geometry" />
        </mxCell>
        <mxCell id="ejsJbF7bYoNr-m1MCgWR-27" style="edgeStyle=orthogonalEdgeStyle;rounded=0;orthogonalLoop=1;jettySize=auto;html=1;exitX=1;exitY=0.5;exitDx=0;exitDy=0;endArrow=none;endFill=0;" parent="WIyWlLk6GJQsqaUBKTNV-1" source="ejsJbF7bYoNr-m1MCgWR-7" edge="1">
          <mxGeometry relative="1" as="geometry">
            <mxPoint x="400" y="1506.2758620689656" as="targetPoint" />
          </mxGeometry>
        </mxCell>
        <mxCell id="ejsJbF7bYoNr-m1MCgWR-7" value="&lt;p style=&quot;margin:0px;margin-top:4px;text-align:center;&quot;&gt;&lt;i&gt;&amp;lt;&amp;lt;Spielfigur&amp;gt;&amp;gt;&lt;/i&gt;&lt;br&gt;&lt;b&gt;Stadt&lt;/b&gt;&lt;/p&gt;&lt;p style=&quot;margin:0px;margin-top:4px;text-align:center;&quot;&gt;{Kosten = &quot;Getreide, Erz&quot;}&lt;/p&gt;&lt;hr size=&quot;1&quot;&gt;&lt;p style=&quot;margin:0px;margin-left:4px;&quot;&gt;&lt;br&gt;&lt;/p&gt;&lt;hr size=&quot;1&quot;&gt;&lt;p style=&quot;margin:0px;margin-left:4px;&quot;&gt;&lt;br&gt;&lt;/p&gt;" style="verticalAlign=top;align=left;overflow=fill;fontSize=12;fontFamily=Helvetica;html=1;whiteSpace=wrap;" parent="WIyWlLk6GJQsqaUBKTNV-1" vertex="1">
          <mxGeometry x="141" y="1470" width="190" height="72" as="geometry" />
        </mxCell>
        <mxCell id="ejsJbF7bYoNr-m1MCgWR-8" style="edgeStyle=orthogonalEdgeStyle;rounded=0;orthogonalLoop=1;jettySize=auto;html=1;exitX=0;exitY=0.5;exitDx=0;exitDy=0;" parent="WIyWlLk6GJQsqaUBKTNV-1" source="ejsJbF7bYoNr-m1MCgWR-7" target="jLUfQ_ZdSW11AOpu9WSQ-68" edge="1">
          <mxGeometry relative="1" as="geometry">
            <mxPoint x="60" y="1190" as="targetPoint" />
            <Array as="points">
              <mxPoint x="60" y="1506" />
            </Array>
          </mxGeometry>
        </mxCell>
        <mxCell id="ejsJbF7bYoNr-m1MCgWR-18" value="Spieler" style="swimlane;fontStyle=1;align=center;verticalAlign=top;childLayout=stackLayout;horizontal=1;startSize=26;horizontalStack=0;resizeParent=1;resizeParentMax=0;resizeLast=0;collapsible=1;marginBottom=0;whiteSpace=wrap;html=1;" parent="WIyWlLk6GJQsqaUBKTNV-1" vertex="1">
          <mxGeometry x="480" y="1540" width="160" height="78" as="geometry" />
        </mxCell>
        <mxCell id="ejsJbF7bYoNr-m1MCgWR-19" value="+ farbe:string&lt;br&gt;+ siegpunkte: int" style="text;strokeColor=none;fillColor=none;align=left;verticalAlign=top;spacingLeft=4;spacingRight=4;overflow=hidden;rotatable=0;points=[[0,0.5],[1,0.5]];portConstraint=eastwest;whiteSpace=wrap;html=1;" parent="ejsJbF7bYoNr-m1MCgWR-18" vertex="1">
          <mxGeometry y="26" width="160" height="44" as="geometry" />
        </mxCell>
        <mxCell id="ejsJbF7bYoNr-m1MCgWR-20" value="" style="line;strokeWidth=1;fillColor=none;align=left;verticalAlign=middle;spacingTop=-1;spacingLeft=3;spacingRight=3;rotatable=0;labelPosition=right;points=[];portConstraint=eastwest;strokeColor=inherit;" parent="ejsJbF7bYoNr-m1MCgWR-18" vertex="1">
          <mxGeometry y="70" width="160" height="8" as="geometry" />
        </mxCell>
        <mxCell id="ejsJbF7bYoNr-m1MCgWR-22" style="edgeStyle=orthogonalEdgeStyle;rounded=0;orthogonalLoop=1;jettySize=auto;html=1;exitX=0;exitY=0.5;exitDx=0;exitDy=0;entryX=1;entryY=0.5;entryDx=0;entryDy=0;endArrow=none;endFill=0;" parent="WIyWlLk6GJQsqaUBKTNV-1" source="ejsJbF7bYoNr-m1MCgWR-31" target="ejsJbF7bYoNr-m1MCgWR-4" edge="1">
          <mxGeometry relative="1" as="geometry">
            <Array as="points" />
          </mxGeometry>
        </mxCell>
        <mxCell id="ejsJbF7bYoNr-m1MCgWR-28" value="0...1" style="text;html=1;align=center;verticalAlign=middle;resizable=0;points=[];autosize=1;strokeColor=none;fillColor=none;" parent="WIyWlLk6GJQsqaUBKTNV-1" vertex="1">
          <mxGeometry x="331" y="1230" width="50" height="30" as="geometry" />
        </mxCell>
        <mxCell id="ejsJbF7bYoNr-m1MCgWR-29" value="4" style="text;html=1;align=center;verticalAlign=middle;resizable=0;points=[];autosize=1;strokeColor=none;fillColor=none;" parent="WIyWlLk6GJQsqaUBKTNV-1" vertex="1">
          <mxGeometry x="341" y="1470" width="30" height="30" as="geometry" />
        </mxCell>
        <mxCell id="ejsJbF7bYoNr-m1MCgWR-30" value="5" style="text;html=1;align=center;verticalAlign=middle;resizable=0;points=[];autosize=1;strokeColor=none;fillColor=none;" parent="WIyWlLk6GJQsqaUBKTNV-1" vertex="1">
          <mxGeometry x="336" y="1380" width="30" height="30" as="geometry" />
        </mxCell>
        <mxCell id="ejsJbF7bYoNr-m1MCgWR-32" style="edgeStyle=orthogonalEdgeStyle;rounded=0;orthogonalLoop=1;jettySize=auto;html=1;exitX=0;exitY=0.5;exitDx=0;exitDy=0;entryX=1;entryY=0.5;entryDx=0;entryDy=0;endArrow=none;endFill=0;" parent="WIyWlLk6GJQsqaUBKTNV-1" source="jLUfQ_ZdSW11AOpu9WSQ-18" target="ejsJbF7bYoNr-m1MCgWR-19" edge="1">
          <mxGeometry relative="1" as="geometry">
            <Array as="points">
              <mxPoint x="760" y="1445" />
              <mxPoint x="760" y="1588" />
            </Array>
          </mxGeometry>
        </mxCell>
        <mxCell id="ejsJbF7bYoNr-m1MCgWR-33" value="3..4" style="text;html=1;align=center;verticalAlign=middle;resizable=0;points=[];autosize=1;strokeColor=none;fillColor=none;" parent="WIyWlLk6GJQsqaUBKTNV-1" vertex="1">
          <mxGeometry x="640" y="1558" width="40" height="30" as="geometry" />
        </mxCell>
        <mxCell id="ejsJbF7bYoNr-m1MCgWR-35" value="" style="edgeStyle=orthogonalEdgeStyle;rounded=0;orthogonalLoop=1;jettySize=auto;html=1;exitX=0;exitY=0.5;exitDx=0;exitDy=0;endArrow=none;endFill=0;" parent="WIyWlLk6GJQsqaUBKTNV-1" source="ejsJbF7bYoNr-m1MCgWR-19" target="ejsJbF7bYoNr-m1MCgWR-4" edge="1">
          <mxGeometry relative="1" as="geometry">
            <mxPoint x="480" y="1588" as="sourcePoint" />
            <mxPoint x="331" y="1326" as="targetPoint" />
            <Array as="points">
              <mxPoint x="480" y="1579" />
              <mxPoint x="400" y="1579" />
              <mxPoint x="400" y="1326" />
            </Array>
          </mxGeometry>
        </mxCell>
        <mxCell id="ejsJbF7bYoNr-m1MCgWR-31" value="15" style="text;html=1;align=center;verticalAlign=middle;resizable=0;points=[];autosize=1;strokeColor=none;fillColor=none;" parent="WIyWlLk6GJQsqaUBKTNV-1" vertex="1">
          <mxGeometry x="331" y="1300" width="40" height="30" as="geometry" />
        </mxCell>
        <mxCell id="ejsJbF7bYoNr-m1MCgWR-43" value="1" style="text;html=1;align=center;verticalAlign=middle;resizable=0;points=[];autosize=1;strokeColor=none;fillColor=none;" parent="WIyWlLk6GJQsqaUBKTNV-1" vertex="1">
          <mxGeometry x="290" y="1168" width="30" height="30" as="geometry" />
        </mxCell>
      </root>
    </mxGraphModel>
  </diagram>
</mxfile>
